<svg width="45" height="34" viewBox="0 0 45 34" fill="none" xmlns="http://www.w3.org/2000/svg">
<path d="M38.0757 2.82552C35.2256 1.50836 32.1398 0.552357 28.9254 0C28.8689 0.000798166 28.815 0.0237063 28.7754 0.0637339C28.3897 0.764802 27.9397 1.67832 27.6397 2.37938C24.2303 1.86984 20.7631 1.86984 17.3537 2.37938C17.0537 1.65707 16.6037 0.764802 16.1965 0.0637339C16.1751 0.0212449 16.1108 0 16.0465 0C12.8321 0.552357 9.76776 1.50836 6.89626 2.82552C6.87483 2.82552 6.8534 2.84676 6.83197 2.86801C1.00324 11.5145 -0.603951 19.9273 0.188928 28.2552C0.188928 28.2977 0.210357 28.3402 0.253216 28.3614C4.11046 31.1657 7.81771 32.8652 11.4821 33.9912C11.5464 34.0124 11.6107 33.9912 11.6321 33.9487C12.4893 32.7803 13.2607 31.5481 13.925 30.2522C13.9679 30.1672 13.925 30.0822 13.8393 30.061C12.6178 29.5936 11.4607 29.0412 10.3249 28.4039C10.2392 28.3614 10.2392 28.2339 10.3035 28.1702C10.5392 28.0003 10.7749 27.8091 11.0107 27.6391C11.0535 27.5966 11.1178 27.5966 11.1607 27.6178C18.5323 30.9532 26.4825 30.9532 33.7684 27.6178C33.8113 27.5966 33.8756 27.5966 33.9184 27.6391C34.1541 27.8303 34.3899 28.0003 34.6256 28.1915C34.7113 28.2552 34.7113 28.3827 34.6042 28.4251C33.4898 29.0837 32.3112 29.6148 31.0898 30.0822C31.0041 30.1035 30.9826 30.2097 31.0041 30.2734C31.6898 31.5693 32.4612 32.8015 33.297 33.97C33.3613 33.9912 33.4256 34.0124 33.4898 33.9912C37.1757 32.8652 40.8829 31.1657 44.7401 28.3614C44.783 28.3402 44.8044 28.2977 44.8044 28.2552C45.7473 18.6314 43.2401 10.2823 38.1614 2.86801C38.14 2.84676 38.1185 2.82552 38.0757 2.82552ZM15.0393 23.1777C12.8321 23.1777 10.9892 21.1595 10.9892 18.6739C10.9892 16.1883 12.7893 14.1701 15.0393 14.1701C17.3108 14.1701 19.1109 16.2096 19.0894 18.6739C19.0894 21.1595 17.2894 23.1777 15.0393 23.1777ZM29.9755 23.1777C27.7683 23.1777 25.9254 21.1595 25.9254 18.6739C25.9254 16.1883 27.7254 14.1701 29.9755 14.1701C32.247 14.1701 34.047 16.2096 34.0256 18.6739C34.0256 21.1595 32.247 23.1777 29.9755 23.1777Z" fill="#EFD9FF"/>
</svg>
