<svg xmlns="http://www.w3.org/2000/svg" width="70" height="70" viewBox="0 0 70 70" fill="none">
  <path fill-rule="evenodd" clip-rule="evenodd" d="M22.678 19.9932C23.7792 19.9756 24.834 20.1834 25.8424 20.6164C26.3972 21.1725 26.7968 21.8277 27.041 22.5822C27.1181 22.7072 27.23 22.7712 27.3767 22.774C28.0952 22.5477 28.8304 22.4038 29.5821 22.3425C33.4139 21.9509 37.2336 22.0307 41.041 22.5822C41.2221 22.5538 41.3979 22.5059 41.5684 22.4384C42.0546 21.5923 42.6939 20.8892 43.4862 20.3288C45.9625 20.0436 48.2959 20.491 50.4862 21.6712C51.9027 22.6663 52.526 24.0248 52.3561 25.7466C52.0358 26.4186 51.6043 27.0098 51.0616 27.5205C52.8163 29.4687 54.2707 31.6262 55.4246 33.9932C55.8299 34.9448 55.9578 35.9356 55.8082 36.9658C55.7219 37.717 55.562 38.4522 55.3287 39.1712C55.1039 39.908 54.6084 40.2755 53.8424 40.274C53.3949 40.5936 53.0113 40.9771 52.6917 41.4247C55.2617 41.5135 57.4832 42.4244 59.3561 44.1575C59.4784 44.3701 59.5743 44.5939 59.6438 44.8288C59.6757 45.9475 59.7077 47.0662 59.7397 48.1849C59.9238 48.593 60.2115 48.9126 60.6027 49.1438C60.9818 49.9476 60.7421 50.2193 59.8835 49.9589C58.7409 49.0248 58.3733 47.8581 58.7808 46.4589C59.0295 45.3831 58.7259 44.5041 57.8698 43.8219C55.9155 42.678 53.8059 42.1667 51.541 42.2877C51.0182 42.3956 50.6346 42.6833 50.3904 43.1507C50.5449 43.4015 50.7367 43.6253 50.9657 43.8219C52.2935 44.5584 53.4921 45.4693 54.5616 46.5548C55.0004 47.2119 55.0963 47.9151 54.8493 48.6644C54.7694 48.8722 54.6255 49.016 54.4178 49.0959C53.6685 49.1887 52.9334 49.1248 52.2123 48.9041C51.5013 48.6351 50.7982 48.3475 50.1027 48.0411C49.1508 47.5173 48.1919 47.0219 47.226 46.5548C47.1301 46.5708 47.0342 46.5867 46.9383 46.6027C45.4417 47.8082 43.7797 48.7352 41.952 49.3836C41.1477 49.4632 40.3486 49.4312 39.5547 49.2877C39.3949 49.2078 39.2351 49.1278 39.0753 49.0479C38.9577 48.8067 38.8139 48.583 38.6438 48.3767C38.4201 48.5045 38.1963 48.5045 37.9725 48.3767C37.9086 48.2489 37.9086 48.121 37.9725 47.9932C38.1685 47.8294 38.3283 47.6376 38.452 47.4178C38.4663 46.352 38.786 45.3931 39.4109 44.5411C41.2621 42.594 43.1479 40.6762 45.0684 38.7877C45.4201 38.3722 45.7716 37.9566 46.1232 37.5411C46.379 37.0936 46.6346 36.6462 46.8904 36.1986C47.244 35.936 47.4837 36.0159 47.6095 36.4384C47.5169 36.9272 47.3091 37.3587 46.9862 37.7329C45.1067 39.9322 43.093 42.0099 40.9452 43.9658C40.2914 44.6978 39.7319 45.4968 39.2671 46.363C39.2871 46.4192 39.3191 46.4671 39.363 46.5068C39.7149 46.4916 40.0665 46.4437 40.4178 46.363C40.432 46.4639 40.4161 46.5598 40.3698 46.6507C39.9884 47.0142 39.7167 47.4457 39.5547 47.9452C39.5672 48.0468 39.6152 48.1266 39.6986 48.1849C40.4497 47.6895 41.2009 47.1941 41.952 46.6986C42.152 46.6452 42.2799 46.7251 42.3356 46.9384C42.2309 47.1871 42.071 47.3949 41.8561 47.5616C41.4615 47.7964 41.094 48.068 40.7534 48.3767C40.72 48.6091 40.8318 48.7049 41.089 48.6644C43.0555 48.2966 44.7017 47.3697 46.0273 45.8836C47.5078 44.2026 48.5945 42.2848 49.2876 40.1301C49.6402 39.4257 50.1037 38.8024 50.678 38.2603C50.938 38.0872 51.1937 38.0872 51.4452 38.2603C51.5462 38.3934 51.5621 38.5372 51.4931 38.6918C50.906 39.2474 50.4265 39.8867 50.0547 40.6096C49.7331 41.2203 49.4934 41.8596 49.3356 42.5274C51.102 41.4186 52.78 40.172 54.3698 38.7877C54.8262 38.2339 55.066 37.5946 55.089 36.8699C55.0586 35.6616 54.7869 34.511 54.2739 33.4178C53.36 31.3323 52.1134 29.4783 50.5342 27.8562C49.6394 28.5672 48.6646 29.1425 47.6095 29.5822C47.4341 29.5745 47.3062 29.4946 47.226 29.3425C47.2819 29.1028 47.4097 28.9111 47.6095 28.7671C49.0746 28.0052 50.3052 26.9663 51.3013 25.6507C51.7381 24.7711 51.6422 23.94 51.0136 23.1575C50.0855 22.2538 48.9828 21.6624 47.7054 21.3836C46.4407 21.0974 45.1622 21.0015 43.8698 21.0959C43.2322 21.4137 42.8007 21.9091 42.5753 22.5822C42.4607 23.4884 42.2848 24.3833 42.0479 25.2671C42.0689 25.405 42.1168 25.5328 42.1917 25.6507C43.0608 26.0132 43.8438 26.5085 44.541 27.137C45.0887 27.5172 45.5522 27.4373 45.9315 26.8973C46.1865 26.3892 46.4423 25.8779 46.6986 25.363C46.805 25.2156 46.9489 25.1518 47.1301 25.1712C47.1422 26.3298 46.7107 27.2887 45.8356 28.0479C45.7716 28.2717 45.7716 28.4955 45.8356 28.7192C46.0593 29.1027 46.2831 29.4863 46.5068 29.8699C46.6548 30.0499 46.8305 30.1938 47.0342 30.3014C47.6928 30.277 48.348 30.1971 48.9999 30.0616C49.1757 30.0936 49.3516 30.1256 49.5273 30.1575C48.8236 30.4612 48.1203 30.7649 47.4178 31.0685C46.9295 31.7168 46.5779 32.436 46.363 33.226C47.1601 33.3058 47.9592 33.3538 48.7602 33.3699C48.9624 33.4044 49.1541 33.4683 49.3356 33.5616C49.4158 33.6586 49.4478 33.7705 49.4315 33.8973C46.7466 33.6663 44.0617 33.4265 41.3767 33.1781C40.5069 33.0949 39.6439 32.9671 38.7876 32.7945C38.6598 32.6667 38.6598 32.5388 38.7876 32.411C38.9475 32.379 39.1072 32.347 39.2671 32.3151C39.4064 32.1124 39.5982 31.9844 39.8424 31.9315C41.6406 31.6211 43.4306 31.2696 45.2123 30.8767C45.5596 30.4942 45.5915 30.0786 45.3082 29.6301C44.2943 27.5952 42.6642 26.3487 40.4178 25.8904C37.4404 25.3055 34.4358 25.1137 31.4041 25.3151C29.8505 25.402 28.3482 25.7216 26.8972 26.274C25.2169 26.8987 24.1941 28.0814 23.8287 29.8219C23.8281 30.0425 23.8761 30.2502 23.9726 30.4452C24.2271 30.5941 24.4988 30.706 24.7876 30.7808C26.2677 31.0628 27.706 31.4783 29.1027 32.0274C29.1829 32.1243 29.2149 32.2362 29.1986 32.363C27.5052 31.9445 25.7952 31.5928 24.0684 31.3082C23.9309 31.3495 23.819 31.4294 23.7328 31.5479C23.865 31.7122 24.0248 31.8401 24.2123 31.9315C25.2513 32.1998 26.3061 32.3916 27.3767 32.5068C27.5207 32.5628 27.6485 32.6426 27.7602 32.7466C27.4934 32.8891 27.2057 32.953 26.8972 32.9384C26.2551 32.8955 25.6158 32.8316 24.9794 32.7466C24.8167 32.7848 24.6569 32.8328 24.4999 32.8904C24.4291 33.5803 24.0775 33.8041 23.4452 33.5616C23.2625 33.3876 23.1026 33.1958 22.9657 32.9863C22.8698 32.9544 22.7739 32.9223 22.678 32.8904C21.3971 32.7977 20.1185 32.6858 18.8424 32.5548C18.829 32.3991 18.8929 32.2873 19.0342 32.2192C20.1545 32.1284 21.2732 32.0325 22.3904 31.9315C22.7725 31.6164 22.7725 31.2968 22.3904 30.9726C21.6402 30.7349 20.8731 30.5751 20.089 30.4932C19.9586 30.3073 19.9905 30.1476 20.1849 30.0137C20.4764 29.983 20.7641 29.983 21.0479 30.0137C19.9143 29.1749 18.7317 28.4078 17.4999 27.7123C17.0051 27.3133 16.5416 26.8818 16.1095 26.4178C15.6086 25.2911 15.6726 24.2043 16.3013 23.1575C17.6346 22.0666 19.0889 21.1556 20.6643 20.4247C21.3283 20.1814 21.9995 20.0375 22.678 19.9932ZM22.678 20.6644C20.4871 21.3365 18.5214 22.4232 16.7808 23.9247C16.3755 24.5835 16.3755 25.2548 16.7808 25.9384C17.0845 26.242 17.388 26.5456 17.6917 26.8493C19.3703 27.9283 21.0324 29.031 22.678 30.1575C22.78 29.3084 23.0357 28.5094 23.4452 27.7603C23.4132 27.6963 23.3812 27.6325 23.3493 27.5685C22.5704 27.2218 21.9152 26.7105 21.3835 26.0342C21.3086 25.8958 21.3246 25.768 21.4315 25.6507C21.9818 25.9297 22.4932 26.2653 22.9657 26.6575C23.2054 26.7374 23.4452 26.8174 23.6849 26.8973C24.3353 26.7559 24.8946 26.4523 25.363 25.9863C25.9853 25.6839 26.5926 25.3643 27.1849 25.0274C26.7724 23.835 26.245 22.7002 25.6027 21.6233C24.819 20.7601 23.8441 20.4405 22.678 20.6644ZM30.3493 22.8699C29.7592 22.9493 29.1519 22.9972 28.5273 23.0137C28.1899 23.0516 27.8703 23.1475 27.5684 23.3014C27.5507 23.9898 27.9023 24.4053 28.6232 24.5479C30.6215 24.6103 32.6192 24.5943 34.6164 24.5C35.6877 24.5368 36.7584 24.5848 37.8287 24.6438C38.9173 24.6874 39.9721 24.8952 40.9931 25.2671C41.1177 25.2105 41.1975 25.1147 41.2328 24.9795C41.3602 24.5056 41.3921 24.0261 41.3287 23.5411C41.2123 23.3926 41.0685 23.2808 40.8972 23.2055C37.3862 22.9667 33.8702 22.8548 30.3493 22.8699ZM44.8287 31.5959C43.3835 31.7641 41.9451 32.0358 40.5136 32.411C42.0912 32.7797 43.6894 32.9075 45.3082 32.7945C45.448 32.5954 45.5118 32.3716 45.4999 32.1233C45.5023 31.6757 45.2786 31.4999 44.8287 31.5959ZM48.7602 43.774C48.4099 44.1097 48.1063 44.4932 47.8493 44.9247C47.6719 45.2159 47.6719 45.5035 47.8493 45.7877C48.2703 46.182 48.7338 46.5176 49.2397 46.7945C50.0327 47.2873 50.8638 47.6709 51.7328 47.9452C51.1526 47.574 50.7371 47.0785 50.4862 46.4589C50.6596 46.458 50.8195 46.506 50.9657 46.6027C51.537 47.014 52.0803 47.4615 52.5958 47.9452C52.9207 48.1716 53.2723 48.3474 53.6506 48.4726C53.763 48.4324 53.8589 48.3686 53.9383 48.2808C54.0949 47.7955 54.0149 47.348 53.6986 46.9384C52.3013 45.4814 50.6551 44.4266 48.7602 43.774Z" fill="#A57FFE"/>
  <path opacity="0.927" fill-rule="evenodd" clip-rule="evenodd" d="M29.3904 26.9932C29.8346 26.8932 30.1382 27.0531 30.3013 27.4726C30.6092 28.7188 30.1776 29.6298 29.0068 30.2055C27.2796 30.6916 26.8481 30.1323 27.7123 28.5274C28.1122 27.8269 28.6715 27.3154 29.3904 26.9932Z" fill="#A57FFE"/>
  <path opacity="0.924" fill-rule="evenodd" clip-rule="evenodd" d="M39.1712 27.2808C39.851 27.3649 40.4103 27.6846 40.8493 28.2397C41.482 29.0181 41.9774 29.8811 42.3356 30.8288C42.2954 30.9412 42.2316 31.037 42.1438 31.1164C41.2315 31.4034 40.4804 31.1797 39.8904 30.4452C39.3691 29.6902 39.0335 28.8592 38.8835 27.9521C38.9542 27.7152 39.0501 27.4914 39.1712 27.2808Z" fill="#A57FFE"/>
  <path opacity="0.971" fill-rule="evenodd" clip-rule="evenodd" d="M20.0889 41.5685C19.7534 40.3226 19.3699 39.092 18.9382 37.8767C18.9572 37.442 19.181 37.2503 19.6094 37.3014C19.8314 37.4077 19.9752 37.5836 20.0409 37.8288C20.3031 39.822 21.0383 41.612 22.2464 43.1986C23.0704 44.138 24.0613 44.8411 25.219 45.3082C25.3205 45.2958 25.4004 45.2478 25.4587 45.1644C25.1715 44.6703 24.9797 44.1429 24.8834 43.5822C25.015 43.5671 25.143 43.5832 25.2669 43.6301C25.7236 44.2232 26.203 44.7986 26.7053 45.3562C26.7962 45.4025 26.8921 45.4184 26.993 45.4041C26.7331 44.5326 26.4454 43.6695 26.13 42.8151C26.2308 42.8008 26.3267 42.8167 26.4176 42.863C26.8924 43.3814 27.3558 43.9088 27.808 44.4452C28.0305 43.5731 27.9027 42.7421 27.4245 41.9521C26.6993 41.173 26.0919 40.31 25.6026 39.363C25.526 39.1943 25.542 39.0345 25.6505 38.8836C26.686 39.8221 27.6449 40.829 28.5272 41.9041C28.8204 42.1652 29.14 42.3889 29.4861 42.5753C32.4168 43.0375 35.3574 43.4211 38.308 43.726C38.5731 43.777 38.8287 43.857 39.0752 43.9658C39.1601 44.0449 39.192 44.1408 39.171 44.2534C38.45 44.2646 37.7309 44.2326 37.0135 44.1575C36.6269 44.1544 36.2593 44.2342 35.9108 44.3973C35.4633 44.4612 35.0158 44.4612 34.5683 44.3973C32.678 44.0126 30.7922 43.613 28.9108 43.1986C29.0731 45.2891 28.1142 46.3599 26.0341 46.411C24.6298 46.0604 23.3512 45.453 22.1984 44.589C22.0034 44.4926 21.7957 44.4446 21.5752 44.4452C20.5424 44.7614 19.5036 45.065 18.4587 45.3562C17.3618 45.5763 16.275 45.5444 15.1984 45.2603C14.5296 44.7539 14.4496 44.1625 14.9587 43.4863C15.7855 42.6449 16.7923 42.1494 17.9793 42C18.1189 41.9594 18.1668 41.8796 18.1231 41.7603C17.7064 41.3121 17.2109 40.9765 16.6368 40.7534C14.9119 40.3701 13.1859 39.9865 11.4587 39.6027C9.31115 39.0313 8.62393 37.7049 9.39708 35.6233C10.143 34.8427 11.054 34.3793 12.13 34.2329C12.8061 34.2126 13.4773 34.1487 14.1437 34.0411C15.0505 32.467 15.9934 30.9167 16.9724 29.3904C17.2121 29.0229 17.5158 28.7192 17.8834 28.4795C18.5171 28.3138 18.6929 28.5215 18.4108 29.1027C17.1688 30.5052 16.114 32.0395 15.2464 33.7055C14.7263 35.2305 14.9181 36.6689 15.8217 38.0205C16.5471 39.1667 17.4581 40.1416 18.5546 40.9452C19.0365 41.2343 19.5478 41.4421 20.0889 41.5685ZM12.7053 34.8562C12.0933 34.9211 11.486 35.0649 10.8834 35.2877C10.6181 35.4283 10.3784 35.6041 10.1642 35.8151C9.58096 36.8525 9.75676 37.7315 10.6916 38.4521C12.2732 39.168 13.9354 39.5356 15.6779 39.5548C15.3916 38.5666 14.9281 37.6716 14.2875 36.8699C14.1728 36.3023 14.1089 35.7269 14.0957 35.1438C13.6655 34.9307 13.2021 34.8348 12.7053 34.8562ZM18.2669 42.6233C17.8346 42.6774 17.4351 42.8372 17.0683 43.1027C16.969 43.4147 16.905 43.7343 16.8765 44.0616C16.7327 44.3333 16.5249 44.5411 16.2532 44.6849C17.8946 44.8341 19.4288 44.4666 20.856 43.5822C20.9598 43.4992 20.9757 43.4034 20.9039 43.2945C20.7525 43.1468 20.5767 43.0349 20.3765 42.9589C19.6887 42.753 18.9855 42.6412 18.2669 42.6233Z" fill="#A57FFE"/>
  <path opacity="0.598" fill-rule="evenodd" clip-rule="evenodd" d="M18.8425 29.6781C19.075 29.7289 19.2987 29.8089 19.5138 29.9178C19.7611 30.0724 19.7611 30.2162 19.5138 30.3493C19.1326 30.2727 18.9089 30.049 18.8425 29.6781Z" fill="#A57FFE"/>
  <path opacity="0.81" fill-rule="evenodd" clip-rule="evenodd" d="M33.5136 29.9658C34.1191 29.9054 34.6785 30.0333 35.1917 30.3493C35.2556 30.4771 35.2556 30.6051 35.1917 30.7329C34.8005 30.8411 34.401 30.8571 33.993 30.7808C33.5131 30.6731 33.3533 30.4015 33.5136 29.9658Z" fill="#A57FFE"/>
  <path opacity="0.875" fill-rule="evenodd" clip-rule="evenodd" d="M32.8423 30.5411C33.3659 30.6516 33.7655 30.9392 34.041 31.4041C34.4508 32.1014 34.8983 32.7727 35.3834 33.4178C35.9803 34.4669 35.7406 34.7227 34.6642 34.1849C34.1703 34.4231 33.6589 34.6149 33.13 34.7603C32.3711 34.6178 32.2752 34.2822 32.8423 33.7534C33.3506 33.6428 33.7342 33.371 33.993 32.9384C33.2184 32.3163 32.8348 31.5173 32.8423 30.5411Z" fill="#A57FFE"/>
  <path opacity="0.839" fill-rule="evenodd" clip-rule="evenodd" d="M35.815 30.8288C36.1722 30.8556 36.2841 31.0474 36.1506 31.4041C35.9629 31.8922 35.6911 32.3237 35.3356 32.6986C35.2397 32.7626 35.1438 32.7626 35.0479 32.6986C34.7898 31.8571 35.0456 31.2338 35.815 30.8288Z" fill="#A57FFE"/>
  <path opacity="0.815" fill-rule="evenodd" clip-rule="evenodd" d="M17.3082 32.0753C17.6294 32.0595 17.949 32.0755 18.2671 32.1233C18.772 32.3204 18.772 32.5122 18.2671 32.6986C17.9475 32.7626 17.6278 32.7626 17.3082 32.6986C16.9347 32.4921 16.9347 32.2843 17.3082 32.0753Z" fill="#A57FFE"/>
  <path fill-rule="evenodd" clip-rule="evenodd" d="M31.9796 36.9658C33.5481 36.9434 35.1143 36.9914 36.6782 37.1096C37.2435 37.1226 37.7549 37.2824 38.2125 37.589C37.9594 37.7757 37.6718 37.8715 37.3495 37.8767C35.5595 37.9407 33.7696 37.9407 31.9796 37.8767C31.62 37.8518 31.2685 37.7878 30.9248 37.6849C30.6632 37.4514 30.6952 37.2597 31.0207 37.1096C31.3587 37.0924 31.6784 37.0445 31.9796 36.9658Z" fill="#A57FFE"/>
  <path opacity="0.74" fill-rule="evenodd" clip-rule="evenodd" d="M51.8289 46.363C51.9459 46.2705 52.0738 46.2865 52.2124 46.411C52.7663 46.7412 53.2937 47.1088 53.7946 47.5137C53.8716 47.775 53.7757 47.9348 53.5069 47.9931C53.3631 47.9452 53.2193 47.8973 53.0754 47.8493C52.6011 47.3914 52.1856 46.896 51.8289 46.363Z" fill="#A57FFE"/>
  <circle cx="34.952" cy="35.0479" r="32.9678" stroke="#A57FFE" stroke-width="0.9"/>
</svg>