<svg width="42" height="36" viewBox="0 0 42 36" fill="none" xmlns="http://www.w3.org/2000/svg">
<path fill-rule="evenodd" clip-rule="evenodd" d="M36.9551 0.614961C37.462 0.401624 38.0168 0.328045 38.5618 0.401883C39.1067 0.47572 39.6219 0.694275 40.0538 1.0348C40.4856 1.37532 40.8183 1.82537 41.0172 2.33809C41.216 2.85081 41.2738 3.40746 41.1846 3.95011L36.5326 32.1676C36.0814 34.8895 33.0949 36.4504 30.5987 35.0946C28.5106 33.9603 25.4093 32.2128 22.6197 30.3893C21.225 29.4765 16.9524 26.5537 17.4775 24.4738C17.9288 22.6955 25.1078 16.0129 29.21 12.0398C30.8202 10.4789 30.0859 9.57844 28.1845 11.0142C23.4627 14.5791 15.8817 20.0003 13.3752 21.5263C11.1641 22.8719 10.0114 23.1016 8.63301 22.8719C6.11832 22.4534 3.78617 21.8053 1.88272 21.0156C-0.689413 19.949 -0.564293 16.4128 1.88066 15.3832L36.9551 0.614961Z" fill="#EFD9FF"/>
</svg>
