<svg width="49" height="34" viewBox="0 0 49 34" fill="none" xmlns="http://www.w3.org/2000/svg">
<path d="M19.6 24.2857L32.3155 17L19.6 9.71429V24.2857ZM47.922 5.27C48.2405 6.41143 48.461 7.94143 48.608 9.88428C48.7795 11.8271 48.853 13.5029 48.853 14.96L49 17C49 22.3186 48.608 26.2286 47.922 28.73C47.3095 30.9157 45.8885 32.3243 43.6835 32.9314C42.532 33.2471 40.425 33.4657 37.191 33.6114C34.006 33.7814 31.0905 33.8543 28.3955 33.8543L24.5 34C14.2345 34 7.84 33.6114 5.3165 32.9314C3.1115 32.3243 1.6905 30.9157 1.078 28.73C0.7595 27.5886 0.539 26.0586 0.392 24.1157C0.2205 22.1729 0.147 20.4971 0.147 19.04L0 17C0 11.6814 0.392 7.77143 1.078 5.27C1.6905 3.08429 3.1115 1.67571 5.3165 1.06857C6.468 0.752857 8.575 0.534285 11.809 0.388571C14.994 0.218571 17.9095 0.145714 20.6045 0.145714L24.5 0C34.7655 0 41.16 0.388572 43.6835 1.06857C45.8885 1.67571 47.3095 3.08429 47.922 5.27Z" fill="#EFD9FF"/>
</svg>
